<?xml version="1.0" standalone="no"?>
<!DOCTYPE svg PUBLIC "-//W3C//DTD SVG 1.1//EN" "http://www.w3.org/Graphics/SVG/1.1/DTD/svg11.dtd" >
<svg xmlns="http://www.w3.org/2000/svg">
<metadata></metadata>
<defs>
<font id="london_tubenormal" horiz-adv-x="1155" >
<font-face units-per-em="2048" ascent="1638" descent="-410" />
<missing-glyph horiz-adv-x="585" />
<glyph horiz-adv-x="2048" />
<glyph horiz-adv-x="2048" />
<glyph unicode="&#xd;" horiz-adv-x="585" />
<glyph unicode=" "  horiz-adv-x="585" />
<glyph unicode="&#x09;" horiz-adv-x="585" />
<glyph unicode="&#xa0;" horiz-adv-x="585" />
<glyph unicode="!" horiz-adv-x="468" d="M82 121l151 149l150 -149l-150 -152zM133 354v1110h201v-1110h-201z" />
<glyph unicode="&#x22;" horiz-adv-x="843" d="M82 1364l151 152l150 -152l-150 -395zM461 1364l153 152l150 -152l-150 -395z" />
<glyph unicode="#" horiz-adv-x="1845" d="M133 459v200h385l100 306h-258v200h326l98 299h234l-100 -299h294l101 299h229l-100 -299h291v-200h-357l-102 -306h231v-200h-297l-90 -264h-229l88 264h-295l-88 -264h-232l89 264h-318zM750 659h292l103 306h-293z" />
<glyph unicode="$" horiz-adv-x="1128" d="M203 399l176 121q0 -68 32.5 -117t88.5 -73v407l-13 4q-96 35 -156.5 117t-60.5 186q0 111 62.5 192t167.5 114v84h198v-82q66 -16 121 -59.5t92 -104.5l-159 -109q-18 41 -54 64v-271l27 -10q119 -41 191.5 -138t72.5 -228q0 -135 -80 -233.5t-211 -133.5v-94h-198v90 q-109 25 -188 95.5t-109 178.5zM461 1044q0 -57 39 -92v183q-39 -35 -39 -91zM698 340q95 47 95 156q0 55 -24 96t-71 70v-322z" />
<glyph unicode="%" horiz-adv-x="1810" d="M90 1096q0 152 105.5 257t257.5 105t258 -106t106 -256q0 -152 -106.5 -258.5t-257.5 -106.5q-150 0 -256.5 106.5t-106.5 258.5zM266 1094q0 -76 55.5 -131.5t131.5 -55.5q78 0 133 55.5t55 133.5t-55.5 131t-132.5 53q-78 0 -132.5 -54.5t-54.5 -131.5zM285 0l952 1464 h258l-954 -1464h-256zM969 356q0 150 106.5 256.5t257.5 106.5q150 0 256.5 -106.5t106.5 -256.5q0 -152 -106.5 -258t-256.5 -106q-152 0 -258 106.5t-106 257.5zM1145 354q0 -76 55 -131t133 -55q76 0 131.5 55t55.5 133t-55.5 131.5t-131.5 53.5q-80 0 -134 -54.5 t-54 -132.5z" />
<glyph unicode="&#x26;" horiz-adv-x="1210" d="M68 395q0 119 47 205t172 186q-55 74 -82 117q-82 135 -82 223q0 158 109.5 259.5t271.5 101.5q160 0 269.5 -101.5t109.5 -259.5q0 -131 -158 -266q-51 -45 -160 -110l303 -398q29 14 48.5 45t19.5 82h192q0 -86 -35.5 -162.5t-95.5 -119.5l150 -199l-242 2l-59 74 q-84 -55 -172 -85t-170 -30q-180 0 -308 128t-128 308zM258 397q0 -104 67.5 -180t170.5 -76q51 0 107 18.5t122 63.5l-322 404q-98 -84 -104 -92q-41 -51 -41 -138zM315 1126q0 -47 68 -137q23 -29 68 -82q76 49 112 78q115 93 115 156q0 78 -45 123t-123 45 q-80 0 -137.5 -51.5t-57.5 -131.5z" />
<glyph unicode="'" horiz-adv-x="466" d="M82 1364l151 152l142 -150q0 -178 -84 -305q-72 -106 -135 -107q-16 0 -23 9q12 14 19 24q45 70 45 143q0 57 -25 112.5t-90 121.5z" />
<glyph unicode="(" horiz-adv-x="540" d="M90 588q0 258 57.5 522t143.5 416h205q-88 -115 -154 -451q-55 -285 -55 -481q0 -205 57 -488q66 -325 158 -456h-211q-82 154 -141.5 414t-59.5 524z" />
<glyph unicode=")" horiz-adv-x="540" d="M35 -350q90 129 155 456q57 285 58 488q0 193 -55 481q-63 338 -152 451h203q86 -147 144 -416.5t58 -521.5q0 -264 -59 -524.5t-143 -413.5h-209z" />
<glyph unicode="*" horiz-adv-x="1304" d="M74 969h428l131 407l135 -407h426l-346 -252l133 -408l-348 252l-346 -252l133 408z" />
<glyph unicode="+" horiz-adv-x="989" d="M186 559v201h207v205h201v-205h205v-201h-205v-205h-201v205h-207z" />
<glyph unicode="," horiz-adv-x="442" d="M82 115l151 149l142 -149q0 -178 -84 -305q-72 -106 -135 -107q-16 0 -23 8q20 27 31 45q33 61 33 121q0 59 -25 115.5t-90 122.5z" />
<glyph unicode="-" horiz-adv-x="708" d="M121 434v199h485v-199h-485z" />
<glyph unicode="." horiz-adv-x="442" d="M82 115l151 149l150 -149l-150 -154z" />
<glyph unicode="/" horiz-adv-x="1062" d="M-82 -334l1038 1798h232l-1038 -1798h-232z" />
<glyph unicode="0" horiz-adv-x="1204" d="M92 727q0 324 135 533q143 221 385 221q246 0 383 -221q127 -205 127 -533q0 -326 -129 -530q-139 -221 -381 -222q-242 0 -385 220q-135 207 -135 532zM293 727q0 -238 83 -393.5t236 -155.5q152 0 234 162q76 149 76 387q0 252 -66 389q-78 162 -244 162 q-160 0 -243 -162q-76 -147 -76 -389z" />
<glyph unicode="1" horiz-adv-x="696" d="M162 1094v243l207 127h141v-1464h-201v1182z" />
<glyph unicode="2" horiz-adv-x="1034" d="M109 -2q23 49 36 76q43 82 74 125l313 424q119 162 134 186q53 96 53 221q0 123 -72 190.5t-186 67.5q-82 0 -169 -33.5t-171 -99.5v213q188 125 364 125q188 0 311.5 -129t123.5 -328q0 -125 -32 -208t-114 -193l-334 -436h547v-201h-878z" />
<glyph unicode="3" d="M135 125l41 233q61 -72 167 -130t189 -58q127 0 223.5 86t96.5 211q0 133 -97.5 224t-248.5 91l-76 -4l283 488h-514v198h858l-307 -528q137 -63 220 -189t83 -276q0 -203 -158 -354.5t-363 -151.5q-90 0 -207.5 49t-189.5 111z" />
<glyph unicode="4" horiz-adv-x="1091" d="M106 393v162l586 909h160v-870h145v-201h-145v-393h-201v393h-545zM342 594h309l2 489z" />
<glyph unicode="5" horiz-adv-x="1118" d="M115 125l41 233q63 -72 165.5 -130t190.5 -58q123 0 220 89t97 210q0 131 -99 222t-243 91q-72 0 -139 -12t-119 -33l107 727h686v-198h-487l-56 -283h56.5t64.5 -6q186 -33 309 -178.5t123 -329.5q0 -203 -158.5 -353.5t-363.5 -150.5q-90 0 -206 49t-189 111z" />
<glyph unicode="6" horiz-adv-x="1228" d="M96 569q0 182 60 369q68 211 196 365q39 47 66.5 76.5t81.5 84.5h250q-78 -72 -113 -110q-27 -31 -90.5 -112t-116.5 -173t-80 -174q57 41 133 68q92 33 179 32q23 0 34 -2q207 -20 328 -159.5t121 -350.5q0 -209 -150.5 -359.5t-359.5 -150.5q-229 0 -384 173t-155 423z M289 584q0 -156 84 -273q98 -135 262 -135q127 0 217 90t90 217q0 145 -83 230.5t-232 85.5q-90 0 -190.5 -43t-139.5 -88q-8 -35 -8 -84z" />
<glyph unicode="7" d="M109 1266v198h1079l-787 -1464h-231l674 1266h-735z" />
<glyph unicode="8" horiz-adv-x="1050" d="M53 395q0 141 58.5 226.5t228.5 185.5q-217 113 -217 299q0 158 119.5 269.5t281.5 111.5q160 0 280 -111.5t120 -269.5q0 -115 -50 -176q-33 -41 -165 -123q172 -92 228 -176t56 -236q0 -176 -141 -297t-328 -121q-186 0 -325 117q-145 123 -146 301zM246 397 q0 -100 82 -168.5t188 -68.5q111 0 193 57q92 64 92 162q0 147 -119 231q-100 61 -158 101q-180 -119 -196 -133q-82 -74 -82 -181zM315 1106q0 -76 76 -123q78 -43 133 -76q4 2 123 68q84 45 84 121q0 78 -61.5 145.5t-139.5 67.5q-80 0 -147.5 -61.5t-67.5 -141.5z" />
<glyph unicode="9" horiz-adv-x="1241" d="M90 979q0 213 148.5 361.5t361.5 148.5q227 0 383 -164t156 -414q0 -174 -76 -358q-82 -201 -248 -393q-29 -35 -63 -76q-41 -49 -76 -86h-244q70 68 110 112t93 113q23 31 100 123q117 141 142 221q-53 -39 -136.5 -68.5t-167.5 -29.5q-23 0 -34 2q-207 18 -328 157.5 t-121 350.5zM291 979q0 -147 83 -230t236 -83q92 0 187.5 41t138.5 88q8 39 8 86q0 154 -84 270q-98 135 -260 135q-127 0 -218 -89t-91 -218z" />
<glyph unicode=":" horiz-adv-x="442" d="M70 115l151 149l150 -149l-150 -154zM70 834l151 149l150 -149l-150 -152z" />
<glyph unicode=";" horiz-adv-x="442" d="M74 115l151 149l144 -149q0 -178 -86 -305q-72 -106 -136 -107q-16 0 -22 8q20 27 31 45q33 61 32 121q0 59 -24.5 115.5t-89.5 122.5zM74 834l151 149l150 -149l-150 -152z" />
<glyph unicode="&#x3c;" horiz-adv-x="843" d="M90 733l424 731h229l-424 -737l424 -727h-229z" />
<glyph unicode="=" horiz-adv-x="989" d="M186 367v198h613v-198h-613zM186 766v199h613v-199h-613z" />
<glyph unicode="&#x3e;" horiz-adv-x="843" d="M98 0l424 727l-424 737h230l424 -731l-424 -733h-230z" />
<glyph unicode="?" horiz-adv-x="917" d="M98 1155v213q104 70 206 103.5t194 33.5q176 0 287.5 -105.5t111.5 -269.5q0 -125 -94 -231q-88 -84 -176 -166q-94 -98 -95 -203v-165h-206v153q0 150 96 270q16 23 178 173q96 90 96 163q0 92 -57 139.5t-154 47.5q-88 0 -189 -39t-198 -117zM289 100l151 150l150 -150 l-150 -149z" />
<glyph unicode="@" horiz-adv-x="1685" d="M113 727q0 311 219 532.5t530 221.5t531.5 -220.5t220.5 -533.5q0 -311 -220 -531.5t-532 -220.5q-309 0 -529 220.5t-220 531.5zM260 727q0 -250 175 -427t427 -177t428 176t176 428t-176 428t-428 176q-250 0 -426 -176t-176 -428zM451 455q0 86 12 127q59 203 379 243 q74 12 110 19q74 12 121 12q4 14 4 45q0 113 -166 113q-63 0 -154 -18.5t-147 -43.5l140 203q14 4 92 16q137 23 170 23q135 0 194 -59q54 -54 54 -156q0 -53 -13 -119l-119 -561h-180l-2 41q-51 -23 -76 -33q-74 -29 -135 -28q-147 0 -215.5 47t-68.5 129zM633 498 q0 -39 29.5 -57.5t74.5 -18.5q25 0 35 2q61 8 115.5 33.5t111.5 70.5l39 187l-221 -53q-80 -23 -127 -62t-52 -62.5t-5 -39.5z" />
<glyph unicode="A" horiz-adv-x="1333" d="M74 0l536 1464h199l534 -1464h-219l-125 350h-579l-129 -350h-217zM496 555h430l-215 594z" />
<glyph unicode="B" horiz-adv-x="1255" d="M133 0v1464h455q158 0 276.5 -112.5t118.5 -270.5q0 -63 -29.5 -125.5t-74.5 -89.5q131 -47 213 -160.5t82 -254.5q0 -186 -132.5 -318.5t-318.5 -132.5h-590zM346 201h379q104 0 177 73t73 177q0 102 -73 174.5t-177 72.5h-379v-497zM346 899h240q78 0 136 54t58 130 t-57 129.5t-137 53.5h-240v-367z" />
<glyph unicode="C" horiz-adv-x="1505" d="M104 729q0 313 229.5 536.5t559.5 223.5q152 0 289 -43q109 -35 241 -107v-235q-139 98 -223 131q-123 47 -307 47q-242 0 -412 -162t-170 -391t171 -392t411 -163q221 0 344 68q41 23 186 131v-260q-129 -80 -249.5 -113t-280.5 -33q-328 0 -558.5 223.5t-230.5 538.5z " />
<glyph unicode="D" horiz-adv-x="1476" d="M133 0v1464h524q295 0 505 -214t210 -515q0 -303 -210 -519t-505 -216h-524zM346 201l311 2q215 0 369 155.5t154 376.5q0 219 -154 377t-369 158h-194.5t-116.5 -4v-1065z" />
<glyph unicode="E" horiz-adv-x="1196" d="M133 0v1464h926v-198h-713v-367h518v-201h-518v-497h748v-201h-961z" />
<glyph unicode="F" d="M133 0v1464h926v-198h-713v-367h518v-201h-518v-698h-213z" />
<glyph unicode="G" horiz-adv-x="1648" d="M135 731q0 313 221.5 532.5t540.5 219.5q152 0 291 -41q119 -35 246 -107v-231q-139 86 -222 119q-145 57 -315 57q-231 0 -395 -159.5t-164 -389.5q0 -227 164 -391t395 -164q121 0 201 19.5t162 64.5v365h-320v206h533v-686l-39 -24q-125 -80 -252 -115t-285 -35 q-317 0 -539.5 222.5t-222.5 537.5z" />
<glyph unicode="H" horiz-adv-x="1460" d="M133 0v1464h213v-571h778v571h215v-1464h-215v694h-778v-694h-213z" />
<glyph unicode="I" horiz-adv-x="473" d="M133 0v1464h213v-1464h-213z" />
<glyph unicode="J" horiz-adv-x="1073" d="M117 244l184 110q0 -72 52.5 -118t125.5 -46q82 0 143.5 63.5t61.5 147.5v1063h213v-1063q0 -172 -125 -305t-285 -133q-123 0 -224 76t-146 205z" />
<glyph unicode="K" horiz-adv-x="1390" d="M133 0v1464h213v-491l588 491h334l-768 -643l821 -821h-303l-672 672v-672h-213z" />
<glyph unicode="L" horiz-adv-x="1114" d="M113 0v1464h211v-1251h700v-213h-911z" />
<glyph unicode="M" horiz-adv-x="1759" d="M133 0v1464h213l539 -686l547 686h206v-1464h-213v1149l-540 -676l-539 655v-1128h-213z" />
<glyph unicode="N" horiz-adv-x="1583" d="M133 0v1464h221l879 -1126v1126h211v-1464h-219l-879 1124v-1124h-213z" />
<glyph unicode="O" horiz-adv-x="1685" d="M113 727q0 311 219 532.5t530 221.5t531.5 -220.5t220.5 -533.5q0 -311 -220 -531.5t-532 -220.5q-309 0 -529 220.5t-220 531.5zM313 727q0 -227 160 -387t389 -160q227 0 389 160t162 387t-160.5 388t-390.5 161q-227 0 -388 -161t-161 -388z" />
<glyph unicode="P" horiz-adv-x="1148" d="M133 0v1464h518q188 0 319.5 -127t131.5 -313q0 -188 -129 -323.5t-316 -135.5h-311v-565h-213zM346 766h311q100 0 169 77t69 181t-70.5 173t-173.5 69h-305v-500z" />
<glyph unicode="Q" horiz-adv-x="1736" d="M104 729q0 309 221.5 530.5t532.5 221.5q309 0 529.5 -220.5t220.5 -531.5q0 -123 -34 -229.5t-104 -204.5l168 -141l-120 -185l-199 166q-100 -76 -217 -118t-244 -42q-311 0 -532.5 221.5t-221.5 532.5zM307 729q0 -227 161 -388t390 -161q168 0 301 92l-139 115 l149 162l146 -121q43 68 66.5 143.5t23.5 157.5q0 227 -160 387t-387 160t-389 -160t-162 -387z" />
<glyph unicode="R" horiz-adv-x="1349" d="M133 0v1464h463q172 0 295 -120.5t123 -294.5q0 -125 -66.5 -226.5t-179.5 -152.5l453 -670h-265l-424 633h-186v-633h-213zM346 834h250q86 0 147.5 61t61.5 147q0 88 -61.5 149.5t-147.5 61.5h-250v-419z" />
<glyph unicode="S" horiz-adv-x="1128" d="M94 297l199 137q0 -106 79 -177t189 -71q115 0 192.5 65.5t77.5 174.5q0 80 -43 142.5t-114 93.5q-70 25 -118 41t-112 42q-121 47 -193.5 143.5t-72.5 223.5q0 170 120 279.5t294 109.5q119 0 213 -54t149 -153l-180 -123q-23 51 -71 80t-111 29q-84 0 -140.5 -44 t-56.5 -124q0 -59 33 -101t88 -63l217 -74q143 -49 232.5 -170.5t89.5 -277.5q0 -201 -142.5 -333t-349.5 -132q-164 0 -294 94.5t-175 241.5z" />
<glyph unicode="T" horiz-adv-x="1390" d="M133 1266v198h1133v-198h-453v-1266h-213v1266h-467z" />
<glyph unicode="U" horiz-adv-x="1593" d="M160 565v899h213v-895q0 -180 117.5 -289.5t308.5 -109.5q188 0 307 108.5t119 286.5v899h213v-897q0 -266 -179.5 -433t-459.5 -167q-279 0 -459 166t-180 432z" />
<glyph unicode="V" horiz-adv-x="1458" d="M74 1464h217l420 -1149l413 1149h219l-534 -1464h-199z" />
<glyph unicode="W" horiz-adv-x="2136" d="M102 1464h222l307 -1073l327 1008h216l327 -1008l307 1073h224l-420 -1464h-209l-336 1034l-336 -1034h-211z" />
<glyph unicode="X" horiz-adv-x="1597" d="M41 0l621 791l-527 673h271l389 -499l393 499h268l-524 -673l618 -791h-272l-483 618l-484 -618h-270z" />
<glyph unicode="Y" horiz-adv-x="1296" d="M70 1464h258l307 -454l307 454h256l-457 -678v-786h-211v784z" />
<glyph unicode="Z" horiz-adv-x="1591" d="M133 0l907 1253h-800v211h1224l-915 -1251h915v-213h-1331z" />
<glyph unicode="[" horiz-adv-x="540" d="M145 -115v1239q0 162 84 262q92 111 271 111v-197q-94 0 -129 -57q-25 -41 -25 -127v-1222q0 -113 38 -148t116 -35v-196q-176 0 -271 110q-84 98 -84 260z" />
<glyph unicode="\" horiz-adv-x="1062" d="M-176 1464h231l1041 -1798h-234z" />
<glyph unicode="]" horiz-adv-x="540" d="M123 -289q96 0 131 56q25 39 25 127v1222q0 111 -40 147.5t-116 36.5v197q176 0 270 -111q84 -98 84 -262v-1239q0 -160 -84 -260q-94 -111 -270 -110v196z" />
<glyph unicode="^" horiz-adv-x="1073" d="M236 1108l206 358h213l207 -358l-313 158z" />
<glyph unicode="_" horiz-adv-x="999" d="M-35 -160h1073v-200h-1073v200z" />
<glyph unicode="`" horiz-adv-x="727" d="M205 1460l211 19l207 -371l-402 141z" />
<glyph unicode="a" horiz-adv-x="1021" d="M92 246q0 113 45 180q84 125 312 158q80 12 118 18q80 12 129 12q0 94 -51 135.5t-164 41.5q-76 0 -169 -18.5t-152 -47.5l108 223q29 8 99 21q132 24 177 24h3q193 0 274 -108q68 -90 68 -262l2 -625h-197l-14 43q-90 -39 -105 -45q-61 -23 -116 -23q-193 0 -285 78 q-82 70 -82 195zM289 246q0 -59 42 -86t97 -27q25 0 35 2q63 8 119.5 38t111.5 79v207q-37 -10 -149 -37q-55 -12 -86 -23q-82 -23 -126 -66.5t-44 -86.5z" />
<glyph unicode="b" horiz-adv-x="1187" d="M166 -2v1466h201v-532q109 57 235 57q211 0 359.5 -148.5t148.5 -359.5t-147.5 -360.5t-360.5 -149.5q-59 0 -113.5 17.5t-121.5 50.5v-41h-201zM367 252q86 -45 108 -53q61 -25 127 -25q127 0 217 90t90 217t-89 216t-218 89q-66 0 -123 -20q-18 -6 -112 -51v-463z" />
<glyph unicode="c" horiz-adv-x="1060" d="M88 483q0 209 154.5 359.5t367.5 150.5q68 0 161 -22.5t163 -52.5v-224q-63 35 -156.5 66t-167.5 31q-129 0 -225 -90.5t-96 -217.5t96 -217t225 -90q76 0 170 39t160 90v-235q-59 -33 -162.5 -65t-167.5 -32q-213 0 -367.5 150.5t-154.5 359.5z" />
<glyph unicode="d" horiz-adv-x="1187" d="M102 481q0 209 149.5 358.5t360.5 149.5q127 0 238 -57v532h199v-1466h-199v41q-68 -33 -123 -50.5t-115 -17.5q-211 0 -360.5 149.5t-149.5 360.5zM303 481q0 -127 90 -217t219 -90q51 0 94.5 13.5t143.5 64.5v463q-96 45 -115 51q-57 20 -123 20q-129 0 -219 -88 t-90 -217z" />
<glyph unicode="e" horiz-adv-x="1138" d="M109 483q0 215 139 362.5t350 147.5t313 -137q94 -127 133 -422h-731q0 -129 96.5 -196.5t274.5 -67.5q104 0 197 43q29 14 143 86l-4 -215q-109 -59 -137 -72q-94 -39 -199 -39q-274 0 -424.5 136.5t-150.5 373.5zM332 600h506q-20 90 -76 137q-61 53 -164 54 q-123 0 -184 -54q-41 -35 -82 -137z" />
<glyph unicode="f" horiz-adv-x="901" d="M68 766v199h165v151q0 154 124 261.5t311 107.5q37 0 77.5 -14.5t79.5 -26.5l4 -244q-37 41 -59 57q-37 25 -86 25q-98 0 -174 -53t-76 -121v-143h402v-199h-400v-766h-200v766h-168z" />
<glyph unicode="g" horiz-adv-x="1085" d="M-6 -258q0 72 67 149q59 68 158 123q-80 61 -80 140q0 94 105 159q-125 109 -125 285q0 162 117.5 277.5t283.5 115.5q98 0 178 -41l318 -2v-188l-127 -2q33 -72 33 -160q0 -170 -115 -282.5t-287 -112.5q-53 0 -74.5 4t-64.5 24q-29 -39 -29 -51q0 -29 65.5 -41 t135.5 -24q221 -59 303 -109q156 -92 156 -252q0 -123 -144.5 -209t-363.5 -86t-364.5 77t-145.5 206zM207 -246q0 -51 95 -83.5t200 -32.5q117 0 207 26q108 33 108 90q0 90 -168 148q-80 29 -241 55q-125 -68 -163 -110t-38 -93zM309 596q0 -88 62.5 -148.5t150.5 -60.5 q90 0 149.5 61.5t59.5 151.5q0 84 -63.5 145.5t-149.5 61.5t-147.5 -61.5t-61.5 -149.5z" />
<glyph unicode="h" horiz-adv-x="1144" d="M133 0v1464h201v-549q59 25 128.5 51.5t125.5 26.5q199 0 319.5 -106.5t120.5 -263.5v-623h-199v616q0 72 -57 119q-68 55 -184 56q-66 0 -137 -27q-47 -18 -117 -57v-707h-201z" />
<glyph unicode="i" horiz-adv-x="468" d="M82 1204l151 152l150 -152l-150 -149zM133 0v973h201v-973h-201z" />
<glyph unicode="j" horiz-adv-x="462" d="M-100 -328q53 -32 95 -32h3q61 0 98 53t37 153v1098h201v-1104q0 -182 -83 -287.5t-216 -105.5q-59 0 -135 27v198zM84 1186l149 151l150 -151l-150 -152z" />
<glyph unicode="k" horiz-adv-x="1103" d="M133 0v1464h201v-786l342 287h311l-467 -392l574 -573h-283l-477 477v-477h-201z" />
<glyph unicode="l" horiz-adv-x="786" d="M145 287v1177h201v-1151q0 -98 10 -118q23 -45 121 -45q70 0 108 17t81 62v-217q-27 -18 -84.5 -28.5t-120.5 -10.5q-193 0 -260 80q-55 66 -56 234z" />
<glyph unicode="m" horiz-adv-x="1726" d="M115 0v969h198v-54q76 35 113 50q68 28 118 28h3q106 0 182 -32.5t135 -96.5q63 61 135 92q86 37 197 37q182 0 292.5 -106.5t110.5 -263.5v-623h-198v616q0 74 -47 119q-57 55 -172 56q-129 0 -228 -97q6 -31 7.5 -40t1.5 -31v-623h-199v616q0 74 -45 119 q-57 55 -172 56q-63 0 -127 -27q-23 -10 -107 -57v-707h-198z" />
<glyph unicode="n" horiz-adv-x="1132" d="M115 0v969h198v-54q59 25 129 51.5t125 26.5q201 0 322 -106.5t121 -263.5v-623h-201v616q0 72 -57 119q-68 55 -185 56q-66 0 -137 -27q-47 -18 -117 -57v-707h-198z" />
<glyph unicode="o" d="M70 483q0 211 149.5 360.5t360.5 149.5t360.5 -149.5t149.5 -360.5q0 -209 -151 -359.5t-359 -150.5q-211 0 -360.5 149.5t-149.5 360.5zM272 483q0 -127 90.5 -217t217.5 -90t217 90t90 217t-90 217.5t-217 90.5t-217.5 -90.5t-90.5 -217.5z" />
<glyph unicode="p" horiz-adv-x="1187" d="M133 -532v1497h201v-37q68 31 112 45q66 20 123 20q211 0 360.5 -149.5t149.5 -360.5q0 -209 -148.5 -359.5t-361.5 -150.5q-61 0 -122.5 16.5t-112.5 45.5v-567h-201zM334 248q94 -43 112 -49q61 -23 123 -23q127 0 217.5 90t90.5 217t-90.5 217.5t-217.5 90.5 q-66 0 -127 -25q-25 -10 -108 -55v-463z" />
<glyph unicode="q" horiz-adv-x="1157" d="M90 483q0 211 147.5 360.5t360.5 149.5q55 0 123 -20q49 -14 115 -45v37h198v-1497h-198v567q-111 -61 -238 -62q-209 0 -358.5 149.5t-149.5 360.5zM291 483q0 -127 90 -217t217 -90q49 0 86 10.5t152 61.5v463q-88 49 -138.5 64.5t-99.5 15.5q-127 0 -217 -90.5 t-90 -217.5z" />
<glyph unicode="r" horiz-adv-x="778" d="M115 0v969h198v-66q72 45 105 60q64 30 119 30h4q41 0 95 -14t103 -35v-264q-53 53 -104 82t-94 29q-63 0 -123 -27q-18 -8 -105 -57v-707h-198z" />
<glyph unicode="s" horiz-adv-x="995" d="M106 41v233q80 -45 150 -75q104 -47 152 -47q154 0 208 18q86 29 86 117q0 33 -43 61q-53 35 -167 62q-238 51 -301.5 120.5t-63.5 198.5q0 115 95 189.5t249 74.5q98 0 205 -22q111 -29 153 -39l-22 -227q-66 43 -160 74.5t-162 31.5q-90 0 -118.5 -26.5t-28.5 -84.5 q0 -43 61.5 -69.5t137.5 -26.5q172 0 280.5 -96t108.5 -229q0 -152 -133 -240q-121 -80 -314 -80q-84 0 -187.5 23.5t-185.5 58.5z" />
<glyph unicode="t" horiz-adv-x="892" d="M41 766v199h160v247h198v-247h400v-199h-400l2 -469q0 -70 32 -94.5t151 -24.5q106 0 215 70v-213q-53 -29 -109.5 -44.5t-105.5 -15.5q-201 0 -292 80t-91 236v475h-160z" />
<glyph unicode="u" horiz-adv-x="1142" d="M129 346v623h201v-617q0 -76 45 -121q53 -53 170 -53q68 0 144.5 24.5t135.5 57.5v709h199v-971h-199v53q-98 -37 -170.5 -56.5t-109.5 -19.5q-199 0 -312 109q-104 100 -104 262z" />
<glyph unicode="v" horiz-adv-x="1005" d="M27 965h211l266 -650l264 650h213l-379 -965h-199z" />
<glyph unicode="w" horiz-adv-x="1570" d="M10 965h217l224 -678l233 612h190l234 -612l223 678h217l-342 -965h-200l-228 592l-225 -592h-201z" />
<glyph unicode="x" horiz-adv-x="1048" d="M41 0l362 498l-340 467h248l217 -295l215 295h248l-340 -467l363 -498h-246l-240 328l-239 -328h-248z" />
<glyph unicode="y" horiz-adv-x="1110" d="M16 -315q20 -10 48 -16.5t47 -6.5q72 0 122 70q14 20 48 80l161 335l-401 818h233l281 -619l297 619h229l-630 -1250q-86 -152 -138 -196q-66 -59 -170 -60h-67q-33 6 -49 9q-2 72 -4.5 142.5t-6.5 74.5z" />
<glyph unicode="z" horiz-adv-x="1054" d="M133 0v201l522 565h-450v199h729v-199l-524 -565h503v-201h-780z" />
<glyph unicode="{" horiz-adv-x="761" d="M63 481v183q115 0 178.5 59t63.5 158v243q0 162 84 262q92 111 270 111v-197q-92 0 -127 -57q-25 -41 -24 -127v-221q0 -102 -74 -201q-59 -80 -137 -127q76 -39 142.5 -153.5t66.5 -239.5v-280q0 -113 38 -148t115 -35v-196q-176 0 -270 110q-84 98 -84 260v273 q0 135 -53 221q-63 102 -189 102z" />
<glyph unicode="|" horiz-adv-x="434" d="M133 -360v1824h172v-1824h-172z" />
<glyph unicode="}" horiz-adv-x="761" d="M82 -289q94 0 129 56q25 39 25 127v280q0 125 69 244q63 111 141 149q-80 49 -137 125q-76 100 -76 203v221q0 111 -38.5 147.5t-112.5 36.5v197q176 0 270 -111q84 -100 84 -262v-243q0 -96 62.5 -156.5t179.5 -60.5v-183q-125 0 -189 -102q-53 -86 -53 -221v-273 q0 -164 -82 -260q-94 -111 -272 -110v196z" />
<glyph unicode="~" horiz-adv-x="968" d="M-8 1331l149 142q137 0 238 -33q98 -39 196 -76q33 0 75 25.5t106 89.5l149 -150l-149 -143q-129 0 -229.5 33.5t-200.5 70.5q-37 0 -78 -23.5t-105 -86.5z" />
<glyph horiz-adv-x="452" d="M82 1364l151 152l150 -152l-150 -395z" />
<glyph horiz-adv-x="540" d="M137 -485v1949h355v-194h-154v-1559h154v-196h-355z" />
<glyph horiz-adv-x="540" d="M41 -289h154v1559h-154v194h352v-1949h-352v196z" />
<glyph unicode="&#xa1;" horiz-adv-x="468" d="M80 1348l149 149l152 -149l-152 -152zM129 2v1110h201v-1110h-201z" />
<glyph unicode="&#xa2;" horiz-adv-x="1060" d="M10 0l201 336q-55 68 -89 151.5t-34 169.5q0 209 155.5 358.5t366.5 149.5l72 -6l104 187h234l-139 -238q27 -6 53 -18v-224q-63 37 -156 68l-315 -549q70 -35 147 -35q74 0 170.5 40t159.5 89v-235q-59 -33 -162.5 -65t-167.5 -32q-66 0 -128 16.5t-117 45.5l-123 -209 h-232zM289 657q0 -29 10 -62.5t25 -64.5l249 431q-115 -14 -199.5 -101.5t-84.5 -202.5z" />
<glyph unicode="&#xa3;" horiz-adv-x="942" d="M154 453v200h106v205q0 162 84 260q94 111 270 111q57 0 96.5 -9.5t67.5 -27.5v-238q-23 25 -45 50q-27 25 -102 30q-104 0 -144 -55q-29 -41 -28 -127v-199h159v-200h-159v-252h346v-201l-545 -2v455h-106z" />
<glyph unicode="&#xa4;" d="M72 496q0 156 86 282h-74l2 213h211v-71q131 86 283 86t284 -88v73h213v-213h-76q86 -126 86 -282q0 -158 -86 -285h76v-211h-215v74q-129 -88 -282 -88q-152 0 -283 86v-72h-213l2 211h72q-86 127 -86 285zM272 496q0 -121 93.5 -214.5t214.5 -93.5t214 93.5t93 214.5 t-93.5 214t-213.5 93q-121 0 -214.5 -93.5t-93.5 -213.5zM434 492l152 151l149 -151l-149 -150z" />
<glyph unicode="&#xa5;" horiz-adv-x="1296" d="M70 1464h258l307 -454l307 454h256l-430 -639h172v-200h-199v-199h199v-201h-199v-225h-211v225h-204v201h204v199h-204v200h176z" />
<glyph unicode="&#xa6;" horiz-adv-x="468" d="M133 0v553h201v-553h-201zM133 913v553h201v-553h-201z" />
<glyph unicode="&#xa7;" horiz-adv-x="835" d="M72 725q0 88 42 162t115 121q-45 37 -73.5 93t-28.5 120q0 123 87 201.5t214 78.5q176 0 264 -149l-133 -88q-37 80 -131 79q-63 0 -102 -31.5t-39 -90.5q0 -43 22.5 -74t63.5 -43l157 -55q102 -37 168 -124t66 -200q0 -88 -42 -162t-116 -119q49 -43 75 -96t26 -121 q0 -121 -87.5 -199.5t-211.5 -78.5q-176 0 -265 147l133 90q33 -80 132 -80q61 0 100 32t39 89q0 92 -86 119l-156 53q-104 39 -168.5 125t-64.5 201zM219 723q0 -82 57.5 -139.5t143.5 -57.5q82 0 139 57.5t57 139.5q0 84 -57 141.5t-139 57.5t-141.5 -57.5t-59.5 -141.5z " />
<glyph unicode="&#xa8;" horiz-adv-x="989" d="M82 1325l151 152l150 -152l-150 -149zM602 1325l152 152l149 -152l-149 -149z" />
<glyph unicode="&#xa9;" horiz-adv-x="1685" d="M113 727q0 311 219 532.5t530 221.5t531.5 -220.5t220.5 -533.5q0 -311 -220 -531.5t-532 -220.5q-309 0 -529 220.5t-220 531.5zM260 727q0 -250 175 -427t427 -177t428 176t176 428t-176 428t-428 176q-250 0 -426 -176t-176 -428zM403 723q0 188 139.5 323.5 t331.5 135.5q61 0 149.5 -21.5t141.5 -48.5v-199q-53 31 -139 59.5t-152 28.5q-117 0 -202.5 -81.5t-85.5 -196.5q0 -113 85 -193.5t203 -80.5q68 0 155 35.5t142 78.5v-211q-49 -31 -143 -58.5t-154 -27.5q-190 0 -330.5 134.5t-140.5 322.5z" />
<glyph unicode="&#xaa;" horiz-adv-x="507" d="M43 1116q0 70 45 107t120 45t138 16q0 78 -108 78q-35 0 -84.5 -8t-75.5 -21l53 101q16 4 70.5 12t70.5 8q94 0 136 -49q35 -41 34 -119l2 -278h-100l-6 16q-27 -10 -56.5 -19.5t-54.5 -9.5q-96 0 -140 33t-44 88zM141 1116q0 -31 31 -43q16 -6 37 -6q14 0 34.5 3t43 14 t57.5 36v92l-117 -24q-43 -12 -64.5 -31.5t-21.5 -40.5z" />
<glyph unicode="&#xab;" horiz-adv-x="1185" d="M92 444v213l359 205l-156 -313l156 -313zM494 657l364 205l-158 -313l158 -313l-360 208z" />
<glyph unicode="&#xac;" horiz-adv-x="2002" d="M102 403h29q0 -53 51 -53q45 0 45 49v209h33v-207q0 -39 -23.5 -60.5t-54.5 -21.5q-33 0 -56.5 21.5t-23.5 62.5zM172 809v278h145v-34h-112v-84h100v-29h-100v-131h-33zM272 330v32h33v-32h-33zM344 809v278h94q39 0 60.5 -23.5t21.5 -53.5q0 -23 -13 -44.5t-34 -25.5 l74 -133h-33l-68 123h-71v-121h-31zM365 330v278h92q39 0 60.5 -23.5t21.5 -54.5q0 -33 -19.5 -56t-54.5 -23h-70v-121h-30zM375 958h61q53 1 53 52q0 47 -49 47h-65v-99zM395 479h60q55 0 55 51q0 47 -51 48h-64v-99zM510 330l80 278h35l82 -278h-31l-27 80h-90l-24 -80 h-25zM567 438h74l-35 127zM571 809v278h146v-34h-111v-84h99v-29h-99v-98h117v-33h-152zM664 573v35h200v-35h-86v-243h-33v243h-81zM752 809v278h145v-34h-113v-84h101v-29h-101v-98h119v-33h-151zM883 330v278h141v-35h-106v-84h100v-30h-100v-97h112v-32h-147zM924 1087 h32l48 -227l51 227h30l54 -227l45 227h28l-57 -278h-35l-51 211l-49 -211h-35zM1051 330v278h96q39 0 60.5 -23.5t21.5 -54.5q0 -59 -45 -71l65 -127h-35l-61 119h-68v-121h-34zM1085 479h60q27 0 39 14t12 37q0 20 -11 34t-38 14h-62v-99zM1208 809l80 278h37l82 -278h-33 l-24 80h-90l-25 -80h-27zM1253 403l29 7q0 -27 25.5 -42.5t48.5 -15.5q25 0 42 15.5t17 35.5q0 16 -15.5 29.5t-66.5 28t-61 34t-10 40.5q0 35 25.5 58t62.5 23q29 0 54.5 -15t31.5 -54l-23 -10q-10 16 -16 24q-20 25 -45 25q-57 0 -58 -45q0 -29 60.5 -47.5t72.5 -30.5 q20 -20 21 -53q0 -35 -23.5 -63t-62.5 -28t-64 15q-35 20 -45 69zM1268 918h73l-36 126zM1434 809v278h96q39 0 60.5 -23.5t21.5 -53.5q0 -25 -11.5 -45.5t-33.5 -24.5l65 -129h-35l-61 119h-68v-121h-34zM1468 958h60q53 1 53 52q0 47 -51 47h-62v-99zM1473 424v102 q0 33 29.5 60.5t64.5 27.5q31 0 61.5 -28.5t30.5 -59.5v-102q0 -39 -25.5 -73t-66.5 -34t-67.5 33t-26.5 74zM1511 438q0 -31 11.5 -53.5t44.5 -22.5q29 0 41 24.5t12 51.5v72q0 23 -15.5 42t-37.5 19q-25 0 -40.5 -19.5t-15.5 -41.5v-72zM1663 809v278h141v-34h-108v-84 h100v-29h-100v-98h114v-33h-147zM1683 330v278h52l86 -194v194h32v-278h-32l-103 229v-229h-35z" />
<glyph unicode="&#xad;" horiz-adv-x="989" d="M186 606v199h613v-199h-613z" />
<glyph unicode="&#xae;" horiz-adv-x="1685" d="M113 727q0 311 219 532.5t530 221.5t531.5 -220.5t220.5 -533.5q0 -311 -220 -531.5t-532 -220.5q-309 0 -529 220.5t-220 531.5zM260 727q0 -250 175 -427t427 -177q94 0 179 26.5t159 77.5l-293 439h-131v-445h-149v1026h323q121 0 207 -84t86 -207q0 -88 -46 -158.5 t-126 -105.5l246 -362q70 82 109.5 184t39.5 213q0 252 -176 428t-428 176q-250 0 -426 -176t-176 -428zM776 805h174q61 0 104.5 43t43.5 104t-43 104.5t-105 43.5h-174v-295z" />
<glyph unicode="&#xaf;" horiz-adv-x="989" d="M186 1145v201h613v-201h-613z" />
<glyph unicode="&#xb0;" horiz-adv-x="598" d="M135 1237q0 74 52.5 126t125.5 52q74 0 126.5 -52t52.5 -126t-52.5 -126t-126.5 -52t-126 52t-52 126zM221 1237q0 -39 26.5 -65.5t65.5 -26.5q37 0 63.5 26.5t26.5 65.5t-25.5 64.5t-64.5 25.5t-65.5 -26.5t-26.5 -63.5z" />
<glyph unicode="&#xb1;" horiz-adv-x="989" d="M186 205v201h613v-201h-613zM186 739v201h207v205h201v-205h205v-201h-205v-207h-201v207h-207z" />
<glyph unicode="&#xb2;" horiz-adv-x="505" d="M53 799q14 27 23 39q23 37 35 51l157 190q45 57 51 68q41 63 41 117q0 55 -35.5 84.5t-93.5 29.5q-84 0 -172 -59v96q92 55 185 55q92 0 153.5 -57t61.5 -145q0 -39 -20.5 -91.5t-51.5 -91.5l-168 -196h234v-90h-400z" />
<glyph unicode="&#xb3;" horiz-adv-x="577" d="M68 856l20 105q25 -25 71 -51.5t68.5 -31t40.5 -4.5q57 0 101.5 32t54.5 81q2 8 2 23q0 49 -39 89t-94 50q-10 2 -37 2t-41 -2l143 219h-258v90h430l-155 -237q70 -31 111.5 -87.5t41.5 -125.5q0 -10 -4 -35q-16 -82 -91 -136.5t-167 -54.5q-43 0 -103.5 23.5t-94.5 50.5 z" />
<glyph unicode="&#xb4;" horiz-adv-x="727" d="M295 1108l207 369l211 -17l-17 -211z" />
<glyph unicode="&#xb5;" horiz-adv-x="1144" d="M133 -532v1495h201v-707q61 -35 123.5 -56.5t130.5 -21.5t142.5 24.5t135.5 57.5v709h201v-971h-201v53q-100 -39 -169.5 -57.5t-108.5 -18.5q-57 0 -133 25q-25 8 -121 47v-579h-201z" />
<glyph unicode="&#xb6;" horiz-adv-x="1181" d="M49 1092q0 166 98.5 272t258.5 106h233h94v-1470h-201v711h-126q-160 0 -258.5 106.5t-98.5 274.5zM227 1092q0 -84 44 -139.5t135 -55.5h126v387h-126q-90 0 -134.5 -55t-44.5 -137zM872 0v1470h201v-1470h-201z" />
<glyph unicode="&#xb7;" horiz-adv-x="442" d="M82 705l151 153l150 -153l-150 -150z" />
<glyph unicode="&#xb8;" horiz-adv-x="1060" d="M473 -311q29 14 41 24q41 33 41 70t-55 80l153 178l11 -164q32 -41 32 -78q0 -55 -59 -90t-119 -35q-33 0 -45 15z" />
<glyph unicode="&#xb9;" horiz-adv-x="323" d="M82 1290v111l104 57h70v-659h-100v532z" />
<glyph unicode="&#xba;" horiz-adv-x="577" d="M37 1225q0 94 73.5 161.5t178.5 67.5q106 0 181 -66.5t75 -162.5q0 -94 -74 -162t-182 -68q-104 0 -178 67.5t-74 162.5zM135 1225q0 -55 45 -96.5t109 -41.5q66 0 110.5 39.5t44.5 98.5q0 55 -45 96t-110 41q-66 0 -110 -40t-44 -97z" />
<glyph unicode="&#xbb;" horiz-adv-x="1185" d="M328 236l155 313l-155 313l366 -205l-6 -213zM733 236l156 313l-156 313l363 -205l-2 -213z" />
<glyph unicode="&#xbc;" horiz-adv-x="1062" d="M123 1030v111l102 57h70v-659h-98v532zM158 170l522 809h113l-517 -809h-118zM504 178v72l262 409h80v-391h74v-90h-74v-178h-101v178h-241zM627 268h118l3 185z" />
<glyph unicode="&#xbd;" horiz-adv-x="1175" d="M123 1030v111l102 57h70v-659h-98v532zM158 170l522 809h113l-517 -809h-118zM633 0l57 90l158 191q39 49 51 67q41 63 41 115q0 57 -36 87t-93 30q-84 0 -172 -60v94q92 57 184 58q92 0 153.5 -57.5t61.5 -147.5q0 -51 -25.5 -104.5t-45.5 -75.5l-168 -197h233v-90h-399 z" />
<glyph unicode="&#xbe;" horiz-adv-x="1150" d="M68 596l20 104q25 -25 71 -51t67.5 -30.5t39.5 -4.5q57 0 102.5 31t55.5 82q2 8 2 23q0 49 -39 89t-94 50q-10 2 -37 2t-41 -2l143 219h-258v90h430l-155 -237q70 -31 111.5 -87.5t41.5 -125.5q0 -10 -4 -35q-16 -80 -91 -134.5t-167 -54.5q-53 0 -104 20.5t-94 51.5z M297 170l522 809h115l-518 -809h-119zM643 178v72l262 409h80v-391h74v-90h-74v-178h-100v178h-242zM768 268h117l2 185z" />
<glyph unicode="&#xbf;" horiz-adv-x="917" d="M45 354q0 123 94 230l176 168q96 100 97 202v166h204v-153q0 -150 -96 -271q-18 -25 -178 -172q-96 -90 -96 -164q0 -92 58 -139t155 -47q92 0 190.5 38t196.5 116v-213q-106 -70 -206.5 -104t-190.5 -34q-176 0 -290 105.5t-114 271.5zM354 1384l150 150l149 -150 l-149 -151z" />
<glyph unicode="&#xc0;" horiz-adv-x="1417" d="M74 0l536 1464h199l534 -1464h-219l-125 350h-579l-129 -350h-217zM424 1892l211 21l209 -373l-402 139zM496 555h430l-215 594z" />
<glyph unicode="&#xc1;" horiz-adv-x="1417" d="M74 0l536 1464h199l534 -1464h-219l-125 350h-579l-129 -350h-217zM481 1528l209 368l211 -16l-18 -211zM496 555h430l-215 594z" />
<glyph unicode="&#xc2;" horiz-adv-x="1417" d="M74 0l536 1464h199l534 -1464h-219l-125 350h-579l-129 -350h-217zM401 1448l209 358h211l207 -358l-313 156zM496 555h430l-215 594z" />
<glyph unicode="&#xc3;" horiz-adv-x="1417" d="M74 0l536 1464h199l534 -1464h-219l-125 350h-579l-129 -350h-217zM360 1681l148 146q139 0 205 -33q37 -39 73 -78q4 0 121 117l152 -152l-150 -143q-131 0 -196 33l-78 74q-8 0 -36 -26t-89 -87zM496 555h430l-215 594z" />
<glyph unicode="&#xc4;" horiz-adv-x="1417" d="M74 0l536 1464h199l534 -1464h-219l-125 350h-579l-129 -350h-217zM289 1692l151 151l150 -151l-150 -152zM496 555h430l-215 594zM809 1692l149 151l150 -151l-150 -152z" />
<glyph unicode="&#xc5;" horiz-adv-x="1417" d="M74 0l536 1464h199l534 -1464h-219l-125 350h-579l-129 -350h-217zM496 555h430l-215 594zM535 1749q0 74 51 125t127 51q74 0 126 -52t52 -124q0 -74 -52.5 -126t-125.5 -52q-74 0 -126 52t-52 126zM621 1749q0 -37 26.5 -63.5t65.5 -26.5t64.5 25.5t25.5 64.5 t-24.5 65.5t-65.5 26.5q-39 0 -65.5 -26.5t-26.5 -65.5z" />
<glyph unicode="&#xc6;" horiz-adv-x="1810" d="M74 0l536 1464h1114v-198h-710v-367h518v-201h-518v-497h745v-201h-960v350h-379l-129 -350h-217zM496 555h303v711h-54z" />
<glyph unicode="&#xc7;" horiz-adv-x="1523" d="M104 729q0 313 229.5 536.5t559.5 223.5q152 0 289 -43q109 -35 241 -107v-235q-139 98 -223 131q-123 47 -307 47q-242 0 -412 -162t-170 -391t171 -392t411 -163q221 0 344 68q41 23 186 131v-260q-127 -78 -236.5 -111t-254.5 -33l4 -92q31 -43 31 -78 q0 -55 -57.5 -90t-118.5 -35q-31 0 -43 15q29 14 40 24q41 33 41 70t-55 80l88 106q-313 0 -535.5 224.5t-222.5 535.5z" />
<glyph unicode="&#xc8;" horiz-adv-x="1196" d="M133 0v1464h926v-198h-713v-367h518v-201h-518v-497h748v-201h-961zM410 1892l211 21l208 -373l-401 139z" />
<glyph unicode="&#xc9;" horiz-adv-x="1196" d="M133 0v1464h926v-198h-713v-367h518v-201h-518v-497h748v-201h-961zM481 1528l209 368l211 -16l-18 -211z" />
<glyph unicode="&#xca;" horiz-adv-x="1196" d="M133 0v1464h926v-198h-713v-367h518v-201h-518v-497h748v-201h-961zM287 1540l209 361h213l206 -361l-313 156z" />
<glyph unicode="&#xcb;" horiz-adv-x="1196" d="M133 0v1464h926v-198h-713v-367h518v-201h-518v-497h748v-201h-961zM221 1692l152 151l151 -151l-151 -152zM741 1692l152 151l149 -151l-149 -152z" />
<glyph unicode="&#xcc;" horiz-adv-x="473" d="M31 1892l211 21l209 -373l-404 139zM133 0v1464h213v-1464h-213z" />
<glyph unicode="&#xcd;" horiz-adv-x="473" d="M29 1528l207 368l213 -16l-19 -211zM133 0v1464h213v-1464h-213z" />
<glyph unicode="&#xce;" horiz-adv-x="473" d="M-72 1540l207 361h215l205 -361l-313 156zM133 0v1464h213v-1464h-213z" />
<glyph unicode="&#xcf;" horiz-adv-x="473" d="M-164 1692l150 151l151 -151l-151 -152zM133 0v1464h213v-1464h-213zM356 1692l150 151l151 -151l-151 -152z" />
<glyph unicode="&#xd0;" horiz-adv-x="1476" d="M0 639v201h133v624h524q295 0 505 -214t210 -515q0 -303 -210 -519t-505 -216h-524v639h-133zM346 201l311 2q215 0 369 155.5t154 376.5q0 219 -154 377t-369 158h-194.5t-116.5 -4v-426h139v-201h-139v-438z" />
<glyph unicode="&#xd1;" horiz-adv-x="1583" d="M133 0v1464h221l879 -1126v1126h211v-1464h-219l-879 1124v-1124h-213zM451 1681l151 146q141 0 205 -33q35 -39 72 -78q4 0 122 117l150 -152l-147 -143q-131 0 -197 33l-78 74q-8 0 -35.5 -26t-89.5 -87z" />
<glyph unicode="&#xd2;" horiz-adv-x="1685" d="M113 727q0 311 219 532.5t530 221.5t531.5 -220.5t220.5 -533.5q0 -311 -220 -531.5t-532 -220.5q-309 0 -529 220.5t-220 531.5zM313 727q0 -227 160 -387t389 -160q227 0 389 160t162 387t-160.5 388t-390.5 161q-227 0 -388 -161t-161 -388zM657 1892l211 21l207 -373 l-399 139z" />
<glyph unicode="&#xd3;" horiz-adv-x="1685" d="M113 727q0 311 219 532.5t530 221.5t531.5 -220.5t220.5 -533.5q0 -311 -220 -531.5t-532 -220.5q-309 0 -529 220.5t-220 531.5zM313 727q0 -227 160 -387t389 -160q227 0 389 160t162 387t-160.5 388t-390.5 161q-227 0 -388 -161t-161 -388zM641 1528l209 368l211 -16 l-19 -211z" />
<glyph unicode="&#xd4;" horiz-adv-x="1685" d="M113 727q0 311 219 532.5t530 221.5t531.5 -220.5t220.5 -533.5q0 -311 -220 -531.5t-532 -220.5q-309 0 -529 220.5t-220 531.5zM313 727q0 -227 160 -387t389 -160q227 0 389 160t162 387t-160.5 388t-390.5 161q-227 0 -388 -161t-161 -388zM547 1540l209 361h213 l207 -361l-316 156z" />
<glyph unicode="&#xd5;" horiz-adv-x="1685" d="M113 727q0 311 219 532.5t530 221.5t531.5 -220.5t220.5 -533.5q0 -311 -220 -531.5t-532 -220.5q-309 0 -529 220.5t-220 531.5zM313 727q0 -227 160 -387t389 -160q227 0 389 160t162 387t-160.5 388t-390.5 161q-227 0 -388 -161t-161 -388zM526 1716l150 144 q139 0 205 -33q35 -39 71 -76q6 0 31 23l92 92l150 -152l-150 -141q-131 0 -196 33q-39 35 -78 71q-10 0 -34 -21.5t-91 -88.5z" />
<glyph unicode="&#xd6;" horiz-adv-x="1685" d="M113 727q0 311 219 532.5t530 221.5t531.5 -220.5t220.5 -533.5q0 -311 -220 -531.5t-532 -220.5q-309 0 -529 220.5t-220 531.5zM313 727q0 -227 160 -387t389 -160q227 0 389 160t162 387t-160.5 388t-390.5 161q-227 0 -388 -161t-161 -388zM422 1692l151 151 l150 -151l-150 -152zM942 1692l152 151l149 -151l-149 -152z" />
<glyph unicode="&#xd7;" horiz-adv-x="1073" d="M188 299l215 299l-194 266h248l71 -94l72 94h248l-197 -266l217 -299h-247l-93 129l-92 -129h-248z" />
<glyph unicode="&#xd8;" horiz-adv-x="1685" d="M113 727q0 311 219 532.5t530 221.5q115 0 214.5 -31t193.5 -90l86 104h260l-195 -231q92 -100 142.5 -230.5t50.5 -275.5q0 -311 -220 -531.5t-532 -220.5q-106 0 -207.5 30t-191.5 85l-76 -90h-262l184 219q-92 100 -144 233.5t-52 274.5zM313 727q0 -96 34 -187 t95 -165l695 827q-121 74 -275 74q-227 0 -388 -161t-161 -388zM596 248q125 -68 266 -68q227 0 389 160t162 387q0 100 -31.5 186t-93.5 162z" />
<glyph unicode="&#xd9;" horiz-adv-x="1593" d="M160 565v899h213v-895q0 -180 117.5 -289.5t308.5 -109.5q188 0 307 108.5t119 286.5v899h213v-897q0 -266 -179.5 -433t-459.5 -167q-279 0 -459 166t-180 432zM563 1892l213 21l207 -373l-401 139z" />
<glyph unicode="&#xda;" horiz-adv-x="1593" d="M160 565v899h213v-895q0 -180 117.5 -289.5t308.5 -109.5q188 0 307 108.5t119 286.5v899h213v-897q0 -266 -179.5 -433t-459.5 -167q-279 0 -459 166t-180 432zM641 1528l209 368l211 -16l-19 -211z" />
<glyph unicode="&#xdb;" horiz-adv-x="1593" d="M160 565v899h213v-895q0 -180 117.5 -289.5t308.5 -109.5q188 0 307 108.5t119 286.5v899h213v-897q0 -266 -179.5 -433t-459.5 -167q-279 0 -459 166t-180 432zM496 1495l204 356l215 2l207 -358l-313 156z" />
<glyph unicode="&#xdc;" horiz-adv-x="1593" d="M160 565v899h213v-895q0 -180 117.5 -289.5t308.5 -109.5q188 0 307 108.5t119 286.5v899h213v-897q0 -266 -179.5 -433t-459.5 -167q-279 0 -459 166t-180 432zM369 1692l151 151l150 -151l-150 -152zM889 1692l149 151l150 -151l-150 -152z" />
<glyph unicode="&#xdd;" horiz-adv-x="1296" d="M70 1464h258l307 -454l307 454h256l-457 -678v-786h-211v784zM481 1528l209 368l211 -16l-18 -211z" />
<glyph unicode="&#xde;" horiz-adv-x="1148" d="M133 0v1464h213v-272h305q188 0 319.5 -127t131.5 -315t-130 -322.5t-315 -134.5h-311v-293h-213zM346 494h311q100 0 169 77t69 183q0 102 -70.5 170.5t-173.5 68.5h-305v-499z" />
<glyph unicode="&#xdf;" horiz-adv-x="1114" d="M106 -2v1073q0 162 115 283q125 133 324 133q186 0 298.5 -104.5t112.5 -268.5q0 -76 -30.5 -140.5t-83.5 -115.5q-51 -53 -84 -67q-4 -2 -15 -5q43 -20 66 -32q70 -39 106 -80q51 -59 75 -131t24 -148q0 -182 -127 -309t-309 -127q-104 0 -195 47l100 156q45 -20 86 -21 q102 0 177 69t75 169q0 111 -86 211q-94 111 -223 110v183q113 0 182.5 67.5t69.5 151.5q0 80 -57.5 135t-159.5 55q-123 0 -189 -88q-53 -72 -53 -160v-1046h-199z" />
<glyph unicode="&#xe0;" horiz-adv-x="1015" d="M86 246q0 113 45 180q84 125 311 158q80 12 119 18q80 12 131 12q0 176 -217 177q-76 0 -169 -18.5t-152 -47.5l108 223q29 8 98 21q137 25 181 24q193 0 274 -108q68 -90 68 -262l2 -625h-197l-14 43q-90 -39 -105 -45q-61 -23 -116 -23q-193 0 -285 78q-82 70 -82 195z M264 1460l211 19l209 -371l-401 141zM285 246q0 -59 41 -86t96 -27q25 0 35 2q63 8 119.5 38t111.5 79v207q-37 -10 -149 -37q-55 -12 -86 -23q-84 -23 -126 -65.5t-42 -87.5z" />
<glyph unicode="&#xe1;" horiz-adv-x="1015" d="M86 246q0 113 45 180q84 125 311 158q80 12 119 18q80 12 131 12q0 176 -217 177q-76 0 -169 -18.5t-152 -47.5l108 223q29 8 98 21q137 25 181 24q193 0 274 -108q68 -90 68 -262l2 -625h-197l-14 43q-90 -39 -105 -45q-61 -23 -116 -23q-193 0 -285 78q-82 70 -82 195z M285 246q0 -59 41 -86t96 -27q25 0 35 2q63 8 119.5 38t111.5 79v207q-37 -10 -149 -37q-55 -12 -86 -23q-84 -23 -126 -65.5t-42 -87.5zM307 1108l209 369l211 -17l-18 -211z" />
<glyph unicode="&#xe2;" horiz-adv-x="1015" d="M86 246q0 113 45 180q84 125 311 158q80 12 119 18q80 12 131 12q0 176 -217 177q-76 0 -169 -18.5t-152 -47.5l108 223q29 8 98 21q137 25 181 24q193 0 274 -108q68 -90 68 -262l2 -625h-197l-14 43q-90 -39 -105 -45q-61 -23 -116 -23q-193 0 -285 78q-82 70 -82 195z M221 1108l209 358h211l209 -358l-315 158zM285 246q0 -59 41 -86t96 -27q25 0 35 2q63 8 119.5 38t111.5 79v207q-37 -10 -149 -37q-55 -12 -86 -23q-84 -23 -126 -65.5t-42 -87.5z" />
<glyph unicode="&#xe3;" horiz-adv-x="1015" d="M86 246q0 113 45 180q84 125 311 158q80 12 119 18q80 12 131 12q0 176 -217 177q-76 0 -169 -18.5t-152 -47.5l108 223q29 8 98 21q137 25 181 24q193 0 274 -108q68 -90 68 -262l2 -625h-197l-14 43q-90 -39 -105 -45q-61 -23 -116 -23q-193 0 -285 78q-82 70 -82 195z M145 1331l150 142q139 0 205 -33q37 -39 73 -76q6 0 123 115l150 -150l-150 -143q-131 0 -196 33q-39 35 -78 71q-16 0 -127 -110zM285 246q0 -59 41 -86t96 -27q25 0 35 2q63 8 119.5 38t111.5 79v207q-37 -10 -149 -37q-55 -12 -86 -23q-84 -23 -126 -65.5t-42 -87.5z" />
<glyph unicode="&#xe4;" horiz-adv-x="1015" d="M82 1325l151 152l150 -152l-150 -149zM86 246q0 113 45 180q84 125 311 158q80 12 119 18q80 12 131 12q0 176 -217 177q-76 0 -169 -18.5t-152 -47.5l108 223q29 8 98 21q137 25 181 24q193 0 274 -108q68 -90 68 -262l2 -625h-197l-14 43q-90 -39 -105 -45 q-61 -23 -116 -23q-193 0 -285 78q-82 70 -82 195zM285 246q0 -59 41 -86t96 -27q25 0 35 2q63 8 119.5 38t111.5 79v207q-37 -10 -149 -37q-55 -12 -86 -23q-84 -23 -126 -65.5t-42 -87.5zM602 1325l152 152l149 -152l-149 -149z" />
<glyph unicode="&#xe5;" horiz-adv-x="1015" d="M86 246q0 113 45 180q84 125 311 158q80 12 119 18q80 12 131 12q0 176 -217 177q-76 0 -169 -18.5t-152 -47.5l108 223q29 8 98 21q137 25 181 24q193 0 274 -108q68 -90 68 -262l2 -625h-197l-14 43q-90 -39 -105 -45q-61 -23 -116 -23q-193 0 -285 78q-82 70 -82 195z M285 246q0 -59 41 -86t96 -27q25 0 35 2q63 8 119.5 38t111.5 79v207q-37 -10 -149 -37q-55 -12 -86 -23q-84 -23 -126 -65.5t-42 -87.5zM362 1249q0 74 52.5 126t124.5 52q74 0 126 -52t52 -126t-52.5 -126t-125.5 -52q-74 0 -125.5 51.5t-51.5 126.5zM449 1249 q0 -37 26.5 -63.5t63.5 -26.5q39 0 65.5 24.5t26.5 65.5q0 39 -26.5 65.5t-65.5 26.5q-37 0 -63.5 -26.5t-26.5 -65.5z" />
<glyph unicode="&#xe6;" horiz-adv-x="1511" d="M86 246q0 113 45 180q84 125 311 158q80 12 119 18q80 12 131 12q0 176 -217 177q-76 0 -169 -18.5t-152 -47.5l108 223q29 8 98 21q137 25 181 24q78 0 129 -14t94 -45q51 25 110.5 42t114.5 17q174 0 277.5 -70.5t128.5 -220.5l43 -268l-555 -2v-233q82 -29 194 -29 q104 0 197 43q27 12 145 86l-6 -215q-104 -59 -135 -72q-94 -39 -201 -39q-55 0 -98 6.5t-94 18.5h-197l-14 43q-90 -39 -105 -45q-61 -23 -116 -23q-193 0 -285 78q-82 70 -82 195zM285 246q0 -59 41 -86t96 -27q25 0 35 2q63 8 119.5 38t111.5 79v207q-37 -10 -149 -37 q-55 -12 -86 -23q-84 -23 -126 -65.5t-42 -87.5zM864 774q12 -45 15.5 -73.5t3.5 -100.5h348q-20 90 -76 137q-61 53 -166 54q-39 0 -63.5 -3.5t-61.5 -13.5z" />
<glyph unicode="&#xe7;" horiz-adv-x="1060" d="M88 483q0 209 154.5 359.5t367.5 150.5q68 0 161 -22.5t163 -52.5v-224q-63 35 -156.5 66t-167.5 31q-129 0 -225 -90.5t-96 -217.5t96 -217t225 -90q76 0 170 39t160 90v-235q-45 -25 -133 -54.5t-150 -38.5l7 -100q33 -41 32 -78q0 -55 -59 -90t-119 -35q-33 0 -45 15 q29 14 41 24q41 33 41 70t-55 80l96 110q-205 0 -356.5 151.5t-151.5 358.5z" />
<glyph unicode="&#xe8;" horiz-adv-x="1187" d="M127 483q0 213 140.5 361.5t348.5 148.5q176 0 283 -70.5t123 -220.5l43 -268h-731q0 -129 96 -196.5t272 -67.5q104 0 197 43q27 12 145 86l-6 -215q-104 -59 -135 -72q-94 -39 -201 -39q-274 0 -424.5 136.5t-150.5 373.5zM338 1460l211 19l207 -371l-400 141zM352 600 h506q-20 90 -76 137q-61 53 -166 54q-123 0 -182 -54q-41 -37 -82 -137z" />
<glyph unicode="&#xe9;" horiz-adv-x="1187" d="M127 483q0 213 140.5 361.5t348.5 148.5q176 0 283 -70.5t123 -220.5l43 -268h-731q0 -129 96 -196.5t272 -67.5q104 0 197 43q27 12 145 86l-6 -215q-104 -59 -135 -72q-94 -39 -201 -39q-274 0 -424.5 136.5t-150.5 373.5zM352 600h506q-20 90 -76 137q-61 53 -166 54 q-123 0 -182 -54q-41 -37 -82 -137zM516 1108l205 369l213 -17l-19 -211z" />
<glyph unicode="&#xea;" horiz-adv-x="1187" d="M127 483q0 213 140.5 361.5t348.5 148.5q176 0 283 -70.5t123 -220.5l43 -268h-731q0 -129 96 -196.5t272 -67.5q104 0 197 43q27 12 145 86l-6 -215q-104 -59 -135 -72q-94 -39 -201 -39q-274 0 -424.5 136.5t-150.5 373.5zM287 1108l209 358h213l206 -358l-313 158z M352 600h506q-20 90 -76 137q-61 53 -166 54q-123 0 -182 -54q-41 -37 -82 -137z" />
<glyph unicode="&#xeb;" horiz-adv-x="1187" d="M127 483q0 213 140.5 361.5t348.5 148.5q176 0 283 -70.5t123 -220.5l43 -268h-731q0 -129 96 -196.5t272 -67.5q104 0 197 43q27 12 145 86l-6 -215q-104 -59 -135 -72q-94 -39 -201 -39q-274 0 -424.5 136.5t-150.5 373.5zM209 1325l151 152l150 -152l-150 -149z M352 600h506q-20 90 -76 137q-61 53 -166 54q-123 0 -182 -54q-41 -37 -82 -137zM729 1325l150 152l149 -152l-149 -149z" />
<glyph unicode="&#xec;" horiz-adv-x="468" d="M18 1460l211 19l207 -371l-399 141zM133 0v973h201v-973h-201z" />
<glyph unicode="&#xed;" horiz-adv-x="468" d="M61 1108l209 369l211 -17l-18 -211zM133 0v973h201v-973h-201z" />
<glyph unicode="&#xee;" horiz-adv-x="468" d="M-78 1108l207 358h213l207 -358l-313 158zM133 0v973h201v-973h-201z" />
<glyph unicode="&#xef;" horiz-adv-x="468" d="M-111 1325l152 152l149 -152l-149 -149zM133 0v973h201v-973h-201zM270 1325l150 152l149 -152l-149 -149z" />
<glyph unicode="&#xf0;" d="M43 483q0 211 149.5 360.5t360.5 149.5q86 0 163 -36.5t126 -94.5q-37 123 -123 244h-359v199h172q-43 39 -98 82t-108 77h315q49 -29 100 -71q45 -37 88 -88h304v-199h-175q68 -137 101 -286.5t33 -280.5q0 -246 -156 -406t-383 -160q-211 0 -360.5 149.5t-149.5 360.5z M246 483q0 -127 90 -217t217 -90t217 90t90 217t-90 217.5t-217 90.5t-217 -90.5t-90 -217.5z" />
<glyph unicode="&#xf1;" horiz-adv-x="1150" d="M133 0v969h201v-54q59 25 128.5 51.5t125.5 26.5q199 0 319.5 -106.5t120.5 -263.5v-623h-199v616q0 72 -57 119q-68 55 -184 56q-66 0 -137 -27q-47 -18 -117 -57v-707h-201zM219 1331l150 142q139 0 204 -33q37 -39 74 -76q6 0 19 12q49 49 102 103l152 -150l-150 -143 q-131 0 -197 33q-39 35 -77 71q-16 0 -127 -110z" />
<glyph unicode="&#xf2;" d="M70 483q0 211 149.5 360.5t360.5 149.5t360.5 -149.5t149.5 -360.5q0 -209 -151 -359.5t-359 -150.5q-211 0 -360.5 149.5t-149.5 360.5zM272 483q0 -127 90.5 -217t217.5 -90t217 90t90 217t-90 217.5t-217 90.5t-217.5 -90.5t-90.5 -217.5zM344 1460l211 19l209 -371 l-402 141z" />
<glyph unicode="&#xf3;" d="M70 483q0 211 149.5 360.5t360.5 149.5t360.5 -149.5t149.5 -360.5q0 -209 -151 -359.5t-359 -150.5q-211 0 -360.5 149.5t-149.5 360.5zM272 483q0 -127 90.5 -217t217.5 -90t217 90t90 217t-90 217.5t-217 90.5t-217.5 -90.5t-90.5 -217.5zM395 1108l207 369l211 -17 l-18 -211z" />
<glyph unicode="&#xf4;" d="M70 483q0 211 149.5 360.5t360.5 149.5t360.5 -149.5t149.5 -360.5q0 -209 -151 -359.5t-359 -150.5q-211 0 -360.5 149.5t-149.5 360.5zM262 1108l207 358h213l207 -358l-314 158zM272 483q0 -127 90.5 -217t217.5 -90t217 90t90 217t-90 217.5t-217 90.5t-217.5 -90.5 t-90.5 -217.5z" />
<glyph unicode="&#xf5;" d="M70 483q0 211 149.5 360.5t360.5 149.5t360.5 -149.5t149.5 -360.5q0 -209 -151 -359.5t-359 -150.5q-211 0 -360.5 149.5t-149.5 360.5zM231 1331l150 142q139 0 205 -33q37 -39 73 -76q6 0 19 12q49 49 102 103l152 -150l-150 -143q-131 0 -196 33q-39 35 -76 71 q-16 0 -127 -110zM272 483q0 -127 90.5 -217t217.5 -90t217 90t90 217t-90 217.5t-217 90.5t-217.5 -90.5t-90.5 -217.5z" />
<glyph unicode="&#xf6;" d="M70 483q0 211 149.5 360.5t360.5 149.5t360.5 -149.5t149.5 -360.5q0 -209 -151 -359.5t-359 -150.5q-211 0 -360.5 149.5t-149.5 360.5zM162 1325l151 152l150 -152l-150 -149zM272 483q0 -127 90.5 -217t217.5 -90t217 90t90 217t-90 217.5t-217 90.5t-217.5 -90.5 t-90.5 -217.5zM682 1325l152 152l149 -152l-149 -149z" />
<glyph unicode="&#xf7;" horiz-adv-x="989" d="M186 379v201h613v-201h-613zM356 115l150 149l151 -149l-151 -154zM356 834l150 149l151 -149l-151 -152z" />
<glyph unicode="&#xf8;" d="M70 483q0 211 149.5 360.5t360.5 149.5q80 0 151 -24l47 84h232l-105 -181q88 -74 136.5 -172t48.5 -217q0 -209 -151 -359.5t-359 -150.5q-88 0 -174 33l-41 -72h-234l102 177q-76 72 -119.5 168t-43.5 204zM272 483q0 -109 68 -192l285 495l-45 5q-127 0 -217.5 -90.5 t-90.5 -217.5zM508 186q29 -6 38 -8t34 -2q127 0 217 90t90 217q0 123 -84 213z" />
<glyph unicode="&#xf9;" horiz-adv-x="1142" d="M129 346v623h201v-617q0 -76 45 -121q53 -53 170 -53q68 0 144.5 24.5t135.5 57.5v709h199v-971h-199v53q-98 -37 -170.5 -56.5t-109.5 -19.5q-199 0 -312 109q-104 100 -104 262zM383 1460l213 19l207 -371l-402 141z" />
<glyph unicode="&#xfa;" horiz-adv-x="1142" d="M129 346v623h201v-617q0 -76 45 -121q53 -53 170 -53q68 0 144.5 24.5t135.5 57.5v709h199v-971h-199v53q-98 -37 -170.5 -56.5t-109.5 -19.5q-199 0 -312 109q-104 100 -104 262zM416 1108l205 369l213 -17l-19 -211z" />
<glyph unicode="&#xfb;" horiz-adv-x="1142" d="M129 346v623h201v-617q0 -76 45 -121q53 -53 170 -53q68 0 144.5 24.5t135.5 57.5v709h199v-971h-199v53q-98 -37 -170.5 -56.5t-109.5 -19.5q-199 0 -312 109q-104 100 -104 262zM268 1108l207 358h215l205 -358l-313 158z" />
<glyph unicode="&#xfc;" horiz-adv-x="1142" d="M129 346v623h201v-617q0 -76 45 -121q53 -53 170 -53q68 0 144.5 24.5t135.5 57.5v709h199v-971h-199v53q-98 -37 -170.5 -56.5t-109.5 -19.5q-199 0 -312 109q-104 100 -104 262zM170 1325l149 152l150 -152l-150 -149zM690 1325l150 152l149 -152l-149 -149z" />
<glyph unicode="&#xfd;" horiz-adv-x="1110" d="M16 -315q20 -10 48 -16.5t47 -6.5q72 0 122 70q14 20 48 80l161 335l-401 818h233l281 -619l297 619h231l-630 -1250q-86 -152 -138 -196q-66 -59 -170 -60h-67q-33 6 -49 9q-4 72 -6.5 142.5t-6.5 74.5zM422 1108l207 369l213 -17l-19 -211z" />
<glyph unicode="&#xfe;" horiz-adv-x="1187" d="M133 -532v1996h201v-536q68 31 112 45q66 20 123 20q211 0 360.5 -149.5t149.5 -360.5q0 -209 -148.5 -359.5t-361.5 -150.5q-61 0 -122.5 16.5t-112.5 45.5v-567h-201zM334 248q94 -43 112 -49q61 -23 123 -23q127 0 217.5 90t90.5 217t-90.5 217.5t-217.5 90.5 q-66 0 -127 -25q-25 -10 -108 -55v-463z" />
<glyph unicode="&#xff;" horiz-adv-x="1110" d="M16 -315q20 -10 48 -16.5t47 -6.5q72 0 122 70q14 20 48 80l161 335l-401 818h233l281 -619l297 619h231l-630 -1250q-86 -152 -138 -196q-66 -59 -170 -60h-67q-33 6 -49 9q-4 72 -6.5 142.5t-6.5 74.5zM150 1325l149 152l152 -152l-152 -149zM670 1325l149 152 l150 -152l-150 -149z" />
<glyph unicode="&#x152;" horiz-adv-x="2060" d="M113 729q0 311 219 532.5t530 221.5q47 0 71.5 -3t82.5 -16h915v-198h-712v-367h520v-201h-520v-497h745v-201h-917q-80 -23 -185 -23q-309 0 -529 220.5t-220 531.5zM313 729q0 -227 160 -387t389 -160q87 1 144 19v1059q-31 6 -71 12t-73 6q-227 0 -388 -161t-161 -388 z" />
<glyph unicode="&#x153;" horiz-adv-x="1845" d="M70 483q0 211 149.5 360.5t360.5 149.5q111 0 206 -42t170 -122q70 78 161 121t200 43q174 0 276.5 -70.5t126.5 -220.5l43 -268h-731q0 -129 96.5 -196.5t274.5 -67.5q104 0 196 43q27 12 146 86l-6 -215q-104 -59 -135 -72q-94 -39 -201 -39q-150 0 -261.5 40 t-189.5 118q-70 -74 -167 -116t-205 -42q-211 0 -360.5 149.5t-149.5 360.5zM272 483q0 -127 90.5 -217t217.5 -90t217 90t90 217t-90 217.5t-217 90.5t-217.5 -90.5t-90.5 -217.5zM1051 600h505q-20 90 -75 137q-61 53 -164 54q-123 0 -182 -54q-41 -37 -84 -137z" />
<glyph unicode="&#x178;" horiz-adv-x="1296" d="M70 1464h258l307 -454l307 454h256l-457 -678v-786h-211v784zM221 1692l152 151l151 -151l-151 -152zM741 1692l152 151l149 -151l-149 -152z" />
<glyph unicode="&#x2c6;" horiz-adv-x="1073" d="M295 1108l207 358h213l209 -358l-314 158z" />
<glyph unicode="&#x2dc;" horiz-adv-x="1015" d="M145 1331l150 142q139 0 205 -33q37 -39 73 -76q6 0 123 115l150 -150l-150 -143q-131 0 -196 33q-39 35 -78 71q-16 0 -127 -110z" />
<glyph unicode="&#x2000;" horiz-adv-x="962" />
<glyph unicode="&#x2001;" horiz-adv-x="1925" />
<glyph unicode="&#x2002;" horiz-adv-x="962" />
<glyph unicode="&#x2003;" horiz-adv-x="1925" />
<glyph unicode="&#x2004;" horiz-adv-x="641" />
<glyph unicode="&#x2005;" horiz-adv-x="481" />
<glyph unicode="&#x2006;" horiz-adv-x="320" />
<glyph unicode="&#x2007;" horiz-adv-x="320" />
<glyph unicode="&#x2008;" horiz-adv-x="240" />
<glyph unicode="&#x2009;" horiz-adv-x="385" />
<glyph unicode="&#x200a;" horiz-adv-x="106" />
<glyph unicode="&#x2010;" horiz-adv-x="708" d="M121 434v199h485v-199h-485z" />
<glyph unicode="&#x2011;" horiz-adv-x="708" d="M121 434v199h485v-199h-485z" />
<glyph unicode="&#x2012;" horiz-adv-x="708" d="M121 434v199h485v-199h-485z" />
<glyph unicode="&#x2013;" horiz-adv-x="1013" d="M133 434v199h752v-199h-752z" />
<glyph unicode="&#x2014;" horiz-adv-x="1732" d="M254 434v199h1231v-199h-1231z" />
<glyph unicode="&#x2018;" horiz-adv-x="442" d="M88 1366l143 150l150 -152q-59 -59 -85 -118.5t-26 -115.5q0 -63 31 -122q10 -18 31 -45q-6 -8 -23 -9q-63 0 -135 107q-86 127 -86 305z" />
<glyph unicode="&#x2019;" horiz-adv-x="466" d="M82 1364l151 152l142 -150q0 -178 -84 -305q-72 -106 -135 -107q-16 0 -23 9q12 14 19 24q45 70 45 143q0 57 -25 112.5t-90 121.5z" />
<glyph unicode="&#x201a;" horiz-adv-x="442" d="M82 115l151 149l142 -149q0 -178 -84 -305q-72 -106 -135 -107q-16 0 -23 8q20 27 31 45q33 61 33 121q0 59 -25 115.5t-90 122.5z" />
<glyph unicode="&#x201c;" horiz-adv-x="909" d="M76 1366l141 150l152 -152q-59 -61 -86 -120.5t-27 -113.5q0 -63 31 -122q10 -18 30 -45q-6 -8 -22 -9q-61 0 -133 107q-86 129 -86 305zM516 1366l141 150l152 -152q-59 -59 -86 -120.5t-27 -113.5q0 -63 31 -122q10 -18 31 -45q-6 -8 -23 -9q-61 0 -133 107 q-86 129 -86 305z" />
<glyph unicode="&#x201d;" horiz-adv-x="851" d="M82 1364l151 152l142 -150q0 -178 -84 -305q-72 -106 -135 -107q-16 0 -23 9q12 14 19 24q45 70 45 143q0 57 -25 112.5t-90 121.5zM481 1364l152 152l143 -150q0 -178 -86 -305q-72 -106 -135 -107q-16 0 -23 9q12 14 19 24q45 70 45 143q0 57 -24.5 112.5t-90.5 121.5z " />
<glyph unicode="&#x201e;" horiz-adv-x="890" d="M82 86l151 152l142 -150q0 -178 -84 -305q-72 -109 -135 -109q-12 0 -23 11q12 14 19 24q45 70 45 144q0 57 -25 112t-90 121zM481 86l152 152l143 -150q0 -176 -86 -305q-72 -109 -135 -109q-12 0 -23 11q12 14 19 24q45 70 45 144q0 57 -24.5 112t-90.5 121z" />
<glyph unicode="&#x2022;" horiz-adv-x="778" d="M92 705l301 303l301 -303l-301 -299z" />
<glyph unicode="&#x2026;" horiz-adv-x="1261" d="M82 115l151 149l150 -149l-150 -154zM489 115l150 149l149 -149l-149 -154zM889 115l149 149l150 -149l-150 -154z" />
<glyph unicode="&#x202f;" horiz-adv-x="385" />
<glyph unicode="&#x2039;" horiz-adv-x="765" d="M109 657l364 205l-156 -313l156 -313l-358 208z" />
<glyph unicode="&#x203a;" horiz-adv-x="765" d="M307 236l156 313l-156 313l367 -205l-6 -213z" />
<glyph unicode="&#x205f;" horiz-adv-x="481" />
<glyph unicode="&#x2122;" horiz-adv-x="1429" d="M117 1393v75h479v-75h-193v-486h-92v486h-194zM649 907v561h92l228 -264l231 264h88v-561h-90v441l-229 -258l-228 249v-432h-92z" />
<glyph unicode="&#xe000;" horiz-adv-x="962" d="M0 0v963h963v-963h-963z" />
</font>
</defs>
</svg>
